#N canvas 266 329 1233 342 16;
#X obj 101 101 tgl 32 0 empty empty empty 17 7 0 10 -262144 -1 -1 0
1;
#X floatatom 98 161 5 0 0 0 - - -;
#X obj 98 50 r a0;
#X obj 137 101 tgl 32 0 empty empty empty 17 7 0 10 -262144 -1 -1 0
1;
#X floatatom 134 239 5 0 0 0 - - -;
#X obj 134 27 r a1;
#X obj 172 101 tgl 32 0 empty empty empty 17 7 0 10 -262144 -1 -1 0
1;
#X floatatom 169 161 5 0 0 0 - - -;
#X obj 208 101 tgl 32 0 empty empty empty 17 7 0 10 -262144 -1 -1 0
1;
#X floatatom 205 239 5 0 0 0 - - -;
#X obj 169 50 r a2;
#X obj 205 27 r a3;
#X obj 243 101 tgl 32 0 empty empty empty 17 7 0 10 -262144 -1 -1 0
1;
#X floatatom 240 161 5 0 0 0 - - -;
#X obj 279 101 tgl 32 0 empty empty empty 17 7 0 10 -262144 -1 -1 0
1;
#X floatatom 276 239 5 0 0 0 - - -;
#X obj 314 101 tgl 32 0 empty empty empty 17 7 0 10 -262144 -1 -1 0
1;
#X floatatom 311 161 5 0 0 0 - - -;
#X obj 350 101 tgl 32 0 empty empty empty 17 7 0 10 -262144 -1 -1 0
1;
#X floatatom 347 240 5 0 0 0 - - -;
#X obj 240 50 r a4;
#X obj 276 25 r a5;
#X obj 311 50 r a6;
#X obj 347 26 r a7;
#X obj 386 101 tgl 32 0 empty empty empty 17 7 0 10 -262144 -1 -1 0
1;
#X floatatom 383 161 5 0 0 0 - - -;
#X obj 422 101 tgl 32 0 empty empty empty 17 7 0 10 -262144 -1 -1 0
1;
#X floatatom 419 239 5 0 0 0 - - -;
#X obj 457 101 tgl 32 0 empty empty empty 17 7 0 10 -262144 -1 -1 0
1;
#X floatatom 454 161 5 0 0 0 - - -;
#X obj 493 101 tgl 32 0 empty empty empty 17 7 0 10 -262144 -1 -1 0
1;
#X floatatom 490 239 5 0 0 0 - - -;
#X obj 528 101 tgl 32 0 empty empty empty 17 7 0 10 -262144 -1 -1 0
1;
#X floatatom 525 161 5 0 0 0 - - -;
#X obj 564 101 tgl 32 0 empty empty empty 17 7 0 10 -262144 -1 -1 0
1;
#X floatatom 561 239 5 0 0 0 - - -;
#X obj 599 101 tgl 32 0 empty empty empty 17 7 0 10 -262144 -1 -1 0
1;
#X floatatom 596 161 5 0 0 0 - - -;
#X obj 635 101 tgl 32 0 empty empty empty 17 7 0 10 -262144 -1 -1 0
1;
#X floatatom 632 240 5 0 0 0 - - -;
#X obj 383 50 r a8;
#X obj 419 27 r a9;
#X obj 454 50 r a10;
#X obj 490 27 r a11;
#X obj 525 50 r a12;
#X obj 561 24 r a13;
#X obj 596 50 r a14;
#X obj 632 25 r a15;
#X obj 670 101 tgl 32 0 empty empty empty 17 7 0 10 -262144 -1 -1 0
1;
#X floatatom 667 161 5 0 0 0 - - -;
#X obj 706 101 tgl 32 0 empty empty empty 17 7 0 10 -262144 -1 -1 0
1;
#X floatatom 703 239 5 0 0 0 - - -;
#X obj 741 101 tgl 32 0 empty empty empty 17 7 0 10 -262144 -1 -1 0
1;
#X floatatom 738 161 5 0 0 0 - - -;
#X obj 777 101 tgl 32 0 empty empty empty 17 7 0 10 -262144 -1 -1 0
1;
#X floatatom 774 239 5 0 0 0 - - -;
#X obj 812 101 tgl 32 0 empty empty empty 17 7 0 10 -262144 -1 -1 0
1;
#X floatatom 810 160 5 0 0 0 - - -;
#X obj 848 101 tgl 32 0 empty empty empty 17 7 0 10 -262144 -1 -1 0
1;
#X floatatom 845 239 5 0 0 0 - - -;
#X obj 883 101 tgl 32 0 empty empty empty 17 7 0 10 -262144 -1 -1 0
1;
#X floatatom 880 161 5 0 0 0 - - -;
#X obj 919 101 tgl 32 0 empty empty empty 17 7 0 10 -262144 -1 -1 0
1;
#X floatatom 916 240 5 0 0 0 - - -;
#X obj 667 50 r a16;
#X obj 703 27 r a17;
#X obj 738 50 r a18;
#X obj 774 27 r a19;
#X obj 809 50 r a20;
#X obj 845 24 r a21;
#X obj 880 50 r a22;
#X obj 916 26 r az;
#X obj 916 269 s hhopn;
#X obj 97 189 s crash;
#X obj 134 267 s crash;
#X obj 169 189 s crash;
#X obj 205 269 s crash;
#X obj 240 189 s crash;
#X obj 276 269 s crash;
#X obj 311 190 s crash;
#X obj 347 270 s crash;
#X obj 383 189 s crash;
#X obj 419 269 s crash;
#X obj 454 188 s crash;
#X obj 490 269 s crash;
#X obj 525 190 s crash;
#X obj 561 269 s crash;
#X obj 596 190 s crash;
#X obj 632 270 s crash;
#X obj 667 190 s crash;
#X obj 703 268 s crash;
#X obj 738 188 s crash;
#X obj 774 269 s crash;
#X obj 809 189 s crash;
#X obj 845 268 s crash;
#X obj 880 189 s crash;
#X connect 0 0 1 0;
#X connect 1 0 73 0;
#X connect 2 0 1 0;
#X connect 3 0 4 0;
#X connect 4 0 74 0;
#X connect 5 0 4 0;
#X connect 6 0 7 0;
#X connect 7 0 75 0;
#X connect 8 0 9 0;
#X connect 9 0 76 0;
#X connect 10 0 7 0;
#X connect 11 0 9 0;
#X connect 12 0 13 0;
#X connect 13 0 77 0;
#X connect 14 0 15 0;
#X connect 15 0 78 0;
#X connect 16 0 17 0;
#X connect 17 0 79 0;
#X connect 18 0 19 0;
#X connect 19 0 80 0;
#X connect 20 0 13 0;
#X connect 21 0 15 0;
#X connect 22 0 17 0;
#X connect 23 0 19 0;
#X connect 24 0 25 0;
#X connect 25 0 81 0;
#X connect 26 0 27 0;
#X connect 27 0 82 0;
#X connect 28 0 29 0;
#X connect 29 0 83 0;
#X connect 30 0 31 0;
#X connect 31 0 84 0;
#X connect 32 0 33 0;
#X connect 33 0 85 0;
#X connect 34 0 35 0;
#X connect 35 0 86 0;
#X connect 36 0 37 0;
#X connect 37 0 87 0;
#X connect 38 0 39 0;
#X connect 39 0 88 0;
#X connect 40 0 25 0;
#X connect 41 0 27 0;
#X connect 42 0 29 0;
#X connect 43 0 31 0;
#X connect 44 0 33 0;
#X connect 45 0 35 0;
#X connect 46 0 37 0;
#X connect 47 0 39 0;
#X connect 48 0 49 0;
#X connect 49 0 89 0;
#X connect 50 0 51 0;
#X connect 51 0 90 0;
#X connect 52 0 53 0;
#X connect 53 0 91 0;
#X connect 54 0 55 0;
#X connect 55 0 92 0;
#X connect 56 0 57 0;
#X connect 57 0 93 0;
#X connect 58 0 59 0;
#X connect 59 0 94 0;
#X connect 60 0 61 0;
#X connect 61 0 95 0;
#X connect 62 0 63 0;
#X connect 63 0 72 0;
#X connect 64 0 49 0;
#X connect 65 0 51 0;
#X connect 66 0 53 0;
#X connect 67 0 55 0;
#X connect 68 0 57 0;
#X connect 69 0 59 0;
#X connect 70 0 61 0;
#X connect 71 0 63 0;
#X coords 0 -1 1 1 853 34 1 100 100;
