#N canvas 0 0 1920 1026 16;
#N canvas 684 308 524 334 reloj 0;
#X obj 57 -6564 bng 25 50 10 0 empty empty empty 17 7 0 10 -262144
-1 -1;
#X obj 38 -6601 metro 100;
#X obj 148 -6820 r tempo;
#X obj 149 -6703 /;
#X obj 149 -6761 t b i;
#X msg 149 -6731 60;
#X floatatom 149 -6601 5 0 0 0 - - -;
#X obj 149 -6675 * 1000;
#X obj 149 -6640 / 6;
#X obj 38 -6527 s reloj;
#X obj 38 -6631 r onoff;
#X obj 148 -6790 line \$1 2000;
#X obj 298 -6688 loadbang;
#X obj 298 -6622 s tempostart;
#X msg 298 -6654 60;
#X connect 1 0 0 0;
#X connect 1 0 9 0;
#X connect 2 0 11 0;
#X connect 3 0 7 0;
#X connect 4 0 5 0;
#X connect 4 1 3 1;
#X connect 5 0 3 0;
#X connect 7 0 8 0;
#X connect 8 0 1 1;
#X connect 8 0 6 0;
#X connect 10 0 1 0;
#X connect 11 0 4 0;
#X connect 12 0 14 0;
#X connect 14 0 13 0;
#X restore 1495 655 pd reloj;
#N canvas 353 34 1016 752 secuenciador 0;
#X obj 32 30 r reloj;
#X obj 32 72 counter;
#X floatatom 32 105 5 0 0 0 - - -;
#X obj 142 141 s contador;
#X obj 53 243 r contador;
#X obj 90 313 select 0 1 2 3 4 5 6 7 8 9 10 11 12 13 14 15 16 17 18
19 20;
#X obj 106 385 s a2;
#X obj 153 385 s a3;
#X obj 200 385 s a4;
#X obj 247 386 s a5;
#X obj 294 386 s a6;
#X obj 342 386 s a7;
#X obj 389 386 s a8;
#X obj 436 386 s a9;
#X obj 483 386 s a10;
#X obj 541 386 s a11;
#X obj 597 386 s a12;
#X obj 231 442 s a13;
#X obj 289 443 s a14;
#X obj 345 443 s a15;
#X obj 402 442 s a16;
#X obj 460 443 s a17;
#X obj 516 443 s a18;
#X obj 574 443 s a19;
#X obj 632 444 s a20;
#X obj 692 444 s a21;
#X obj 749 444 s a22;
#X obj 689 312 select 21 22 23;
#N canvas 735 253 399 412 snare 0;
#X obj 26 23 r snare;
#X msg 26 109 1;
#X msg 74 109 open Sounds/Snare.wav;
#X obj 26 144 readsf~;
#X obj 26 52 select 1;
#X obj 26 84 bng 15 250 50 0 empty empty empty 17 7 0 10 -262144 -1
-1;
#X obj 25 237 throw~ output;
#X obj 26 209 *~;
#X obj 77 183 r snarevol;
#X connect 0 0 4 0;
#X connect 1 0 3 0;
#X connect 2 0 3 0;
#X connect 3 0 7 0;
#X connect 4 0 5 0;
#X connect 5 0 2 0;
#X connect 5 0 1 0;
#X connect 7 0 6 0;
#X connect 8 0 7 1;
#X restore 341 191 pd snare;
#X obj 128 28 r onoff;
#X obj 127 56 bng 15 250 50 0 empty empty empty 17 7 0 10 -262144 -1
-1;
#N canvas 790 365 559 454 kick 0;
#X msg 36 119 1;
#X obj 36 154 readsf~;
#X obj 36 62 select 1;
#X obj 36 94 bng 15 250 50 0 empty empty empty 17 7 0 10 -262144 -1
-1;
#X obj 36 33 r kick;
#X msg 84 119 open Sounds/Kick.wav;
#X obj 38 244 throw~ output;
#X obj 39 216 *~;
#X obj 90 189 r kickvol;
#X connect 0 0 1 0;
#X connect 1 0 7 0;
#X connect 2 0 3 0;
#X connect 3 0 5 0;
#X connect 3 0 0 0;
#X connect 4 0 2 0;
#X connect 5 0 1 0;
#X connect 7 0 6 0;
#X connect 8 0 7 1;
#X restore 343 232 pd kick;
#X obj 59 385 s a1;
#X obj 32 141 select 23;
#X obj 10 384 s a0;
#X obj 807 443 s az;
#N canvas 865 362 450 383 clap 0;
#X msg 36 119 1;
#X obj 36 154 readsf~;
#X obj 36 62 select 1;
#X obj 36 94 bng 15 250 50 0 empty empty empty 17 7 0 10 -262144 -1
-1;
#X obj 36 33 r clap;
#X msg 84 119 open Sounds/Clap.wav;
#X obj 36 238 throw~ output;
#X obj 37 210 *~;
#X obj 88 184 r clapvol;
#X connect 0 0 1 0;
#X connect 1 0 7 0;
#X connect 2 0 3 0;
#X connect 3 0 5 0;
#X connect 3 0 0 0;
#X connect 4 0 2 0;
#X connect 5 0 1 0;
#X connect 7 0 6 0;
#X connect 8 0 7 1;
#X restore 353 157 pd clap;
#N canvas 818 408 450 360 hh 0;
#X msg 46 129 1;
#X obj 46 164 readsf~;
#X obj 46 72 select 1;
#X obj 46 104 bng 15 250 50 0 empty empty empty 17 7 0 10 -262144 -1
-1;
#X obj 46 43 r hhcls;
#X msg 94 129 open Sounds/Hat-Closed.wav;
#X obj 46 252 throw~ output;
#X obj 47 224 *~;
#X obj 98 197 r hhcvol;
#X connect 0 0 1 0;
#X connect 1 0 7 0;
#X connect 2 0 3 0;
#X connect 3 0 5 0;
#X connect 3 0 0 0;
#X connect 4 0 2 0;
#X connect 5 0 1 0;
#X connect 7 0 6 0;
#X connect 8 0 7 1;
#X restore 348 124 pd hh close;
#N canvas 615 179 450 300 hh 0;
#X msg 56 139 1;
#X obj 56 174 readsf~;
#X obj 56 82 select 1;
#X obj 56 114 bng 15 250 50 0 empty empty empty 17 7 0 10 -262144 -1
-1;
#X obj 55 53 r hhopn;
#X msg 104 138 open Sounds/Hat-Open.wav;
#X obj 54 259 throw~ output;
#X obj 55 231 *~;
#X obj 106 205 r hhovol;
#X connect 0 0 1 0;
#X connect 1 0 7 0;
#X connect 2 0 3 0;
#X connect 3 0 5 0;
#X connect 3 0 0 0;
#X connect 4 0 2 0;
#X connect 5 0 1 0;
#X connect 7 0 6 0;
#X connect 8 0 7 1;
#X restore 342 85 pd hh open;
#N canvas 992 282 450 300 crash 0;
#X msg 66 149 1;
#X obj 66 184 readsf~;
#X obj 66 92 select 1;
#X obj 66 124 bng 15 250 50 0 empty empty empty 17 7 0 10 -262144 -1
-1;
#X obj 66 271 throw~ output;
#X obj 65 63 r crash;
#X msg 114 148 open Sounds/Crash.wav;
#X obj 67 243 *~;
#X obj 118 217 r crashvol;
#X connect 0 0 1 0;
#X connect 1 0 7 0;
#X connect 2 0 3 0;
#X connect 3 0 6 0;
#X connect 3 0 0 0;
#X connect 5 0 2 0;
#X connect 6 0 1 0;
#X connect 7 0 4 0;
#X connect 8 0 7 1;
#X restore 356 45 pd crash;
#X obj 70 544 r vol1;
#X obj 145 546 loadbang;
#X obj 70 614 s vol;
#X msg 70 580 1;
#X obj 429 562 catch~ output;
#X obj 428 697 throw~ outl;
#X obj 575 701 throw~ outr;
#X connect 0 0 1 0;
#X connect 1 0 2 0;
#X connect 2 0 3 0;
#X connect 2 0 33 0;
#X connect 4 0 5 0;
#X connect 4 0 27 0;
#X connect 5 0 34 0;
#X connect 5 1 32 0;
#X connect 5 2 6 0;
#X connect 5 3 7 0;
#X connect 5 4 8 0;
#X connect 5 5 9 0;
#X connect 5 6 10 0;
#X connect 5 7 11 0;
#X connect 5 8 12 0;
#X connect 5 9 13 0;
#X connect 5 10 14 0;
#X connect 5 11 15 0;
#X connect 5 12 16 0;
#X connect 5 13 17 0;
#X connect 5 14 18 0;
#X connect 5 15 19 0;
#X connect 5 16 20 0;
#X connect 5 17 21 0;
#X connect 5 18 22 0;
#X connect 5 19 23 0;
#X connect 5 20 24 0;
#X connect 27 0 25 0;
#X connect 27 1 26 0;
#X connect 27 2 35 0;
#X connect 29 0 30 0;
#X connect 30 0 1 2;
#X connect 33 0 30 0;
#X connect 40 0 43 0;
#X connect 41 0 43 0;
#X connect 43 0 42 0;
#X connect 44 0 45 0;
#X connect 44 0 46 0;
#X restore 1346 683 pd secuenciador bateria;
#X obj 1082 258 catch~ outl;
#X obj 1082 257 catch~ outr;
#N canvas 0 0 1920 1026 sinte 0;
#X obj 71 67 phasor~;
#X obj 287 67 phasor~;
#X obj 71 10 r freq;
#X obj 287 33 * 2;
#X obj 72 229 *~;
#X obj 288 228 *~;
#X obj 529 66 phasor~;
#X obj 529 33 * 4;
#X obj 529 225 *~;
#X obj 71 274 *~ 0.33;
#X obj 72 408 lop~;
#X floatatom 241 466 5 0 0 0 - - -;
#X obj 241 431 line;
#X obj 241 274 r freq;
#X obj 241 313 t b f;
#X obj 348 336 * 6;
#X obj 71 447 lop~;
#N canvas 659 295 981 617 frecuencias 0;
#X msg 78 177 28;
#X obj 116 221 mtof;
#X floatatom 188 266 5 0 0 0 - - -;
#X msg 125 177 29;
#X msg 173 176 30;
#X msg 222 177 31;
#X msg 268 176 32;
#X msg 317 177 33;
#X msg 365 176 34;
#X msg 414 176 35;
#X msg 460 175 36;
#X msg 511 175 37;
#X msg 561 175 38;
#X msg 612 175 39;
#X msg 661 175 40;
#X msg 713 175 41;
#X msg 764 174 42;
#X msg 815 174 43;
#X obj 116 266 s freq;
#X obj 101 62 r nt;
#X obj 101 114 select 1 2 3 4 5 6 7 8 9 10 11 12 13 14 15 16 17;
#X obj 618 229 line;
#X msg 864 174 0 10;
#X connect 0 0 1 0;
#X connect 1 0 2 0;
#X connect 1 0 18 0;
#X connect 3 0 1 0;
#X connect 4 0 1 0;
#X connect 5 0 1 0;
#X connect 6 0 1 0;
#X connect 7 0 1 0;
#X connect 8 0 1 0;
#X connect 9 0 1 0;
#X connect 10 0 1 0;
#X connect 11 0 1 0;
#X connect 12 0 1 0;
#X connect 13 0 1 0;
#X connect 14 0 1 0;
#X connect 15 0 1 0;
#X connect 16 0 1 0;
#X connect 17 0 1 0;
#X connect 19 0 20 0;
#X connect 20 0 0 0;
#X connect 20 1 3 0;
#X connect 20 2 4 0;
#X connect 20 3 5 0;
#X connect 20 4 6 0;
#X connect 20 5 7 0;
#X connect 20 6 8 0;
#X connect 20 7 9 0;
#X connect 20 8 10 0;
#X connect 20 9 11 0;
#X connect 20 10 12 0;
#X connect 20 11 13 0;
#X connect 20 12 14 0;
#X connect 20 13 15 0;
#X connect 20 14 16 0;
#X connect 20 15 17 0;
#X connect 20 17 22 0;
#X connect 21 0 18 0;
#X connect 22 0 21 0;
#X restore 722 79 pd frecuencias;
#X obj 375 302 r bright;
#X msg 241 395 4000 15;
#X obj 439 375 r atk;
#X obj 348 401 pack;
#X obj 348 367 pipe 20;
#X obj 495 294 loadbang;
#X msg 495 327 320;
#X obj 72 513 *~ 1;
#X msg 215 658 1 10;
#X obj 276 630 pipe 15;
#X obj 374 657 r dec;
#X obj 364 583 loadbang;
#X msg 364 620 500;
#X obj 215 702 line;
#X obj 310 682 pack;
#X msg 267 600 0;
#X floatatom 215 748 5 0 0 0 - - -;
#X obj 215 571 t b b;
#X obj 198 503 r freq;
#X obj 87 167 loadbang;
#X msg 87 195 1;
#X obj 133 195 r vol01;
#X obj 319 166 loadbang;
#X obj 365 194 r vol02;
#X msg 319 194 0.5;
#X obj 552 169 loadbang;
#X obj 598 197 r vol03;
#X msg 552 197 0.2;
#X obj 24 627 throw~ outl;
#X obj 54 593 throw~ outr;
#X obj 198 537 sel 0;
#X obj 560 503 loadbang;
#X obj 629 579 s iniatk;
#X obj 594 642 s inidec;
#X obj 508 578 s inilop;
#X msg 507 546 6;
#X msg 594 607 500;
#X msg 628 548 320;
#X obj 18 67 osc~;
#X obj 235 67 osc~;
#X obj 476 66 osc~;
#X obj 21 127 spigot~;
#X obj 143 127 spigot~;
#X obj 144 99 r switch1;
#X obj 35 99 r switch1;
#X obj 258 126 spigot~;
#X obj 380 126 spigot~;
#X obj 272 98 r switch2;
#X obj 394 98 r switch2;
#X obj 527 126 spigot~;
#X obj 649 126 spigot~;
#X obj 541 98 r switch3;
#X obj 663 98 r switch3;
#X obj 128 227 s vol1ini;
#X obj 344 229 s vol2ini;
#X obj 583 228 s vol3ini;
#X connect 0 0 60 0;
#X connect 1 0 64 0;
#X connect 2 0 3 0;
#X connect 2 0 0 0;
#X connect 2 0 7 0;
#X connect 2 0 56 0;
#X connect 3 0 1 0;
#X connect 3 0 57 0;
#X connect 4 0 9 0;
#X connect 5 0 9 0;
#X connect 6 0 68 0;
#X connect 7 0 6 0;
#X connect 7 0 58 0;
#X connect 8 0 9 0;
#X connect 9 0 10 0;
#X connect 10 0 16 0;
#X connect 12 0 11 0;
#X connect 12 0 10 1;
#X connect 12 0 16 1;
#X connect 13 0 14 0;
#X connect 14 0 19 0;
#X connect 14 1 15 0;
#X connect 15 0 22 0;
#X connect 16 0 25 0;
#X connect 18 0 15 1;
#X connect 19 0 12 0;
#X connect 20 0 21 1;
#X connect 21 0 12 0;
#X connect 22 0 21 0;
#X connect 23 0 24 0;
#X connect 24 0 21 1;
#X connect 25 0 47 0;
#X connect 25 0 46 0;
#X connect 26 0 31 0;
#X connect 27 0 32 0;
#X connect 28 0 32 1;
#X connect 29 0 30 0;
#X connect 30 0 32 1;
#X connect 31 0 25 1;
#X connect 31 0 34 0;
#X connect 32 0 31 0;
#X connect 33 0 27 0;
#X connect 35 0 26 0;
#X connect 35 1 33 0;
#X connect 36 0 48 0;
#X connect 37 0 38 0;
#X connect 38 0 4 1;
#X connect 38 0 71 0;
#X connect 39 0 4 1;
#X connect 40 0 42 0;
#X connect 41 0 5 1;
#X connect 42 0 5 1;
#X connect 42 0 72 0;
#X connect 43 0 45 0;
#X connect 44 0 8 1;
#X connect 45 0 8 1;
#X connect 45 0 73 0;
#X connect 48 1 35 0;
#X connect 49 0 53 0;
#X connect 49 0 54 0;
#X connect 49 0 55 0;
#X connect 53 0 52 0;
#X connect 54 0 51 0;
#X connect 55 0 50 0;
#X connect 56 0 59 0;
#X connect 57 0 63 0;
#X connect 58 0 67 0;
#X connect 59 1 4 0;
#X connect 60 0 4 0;
#X connect 61 0 60 1;
#X connect 62 0 59 1;
#X connect 63 1 5 0;
#X connect 64 0 5 0;
#X connect 65 0 63 1;
#X connect 66 0 64 1;
#X connect 67 1 8 0;
#X connect 68 0 8 0;
#X connect 69 0 67 1;
#X connect 70 0 68 1;
#X restore 1446 711 pd sinte bajo;
#X obj 1106 732 line~;
#X obj 1106 754 s~ envolvente;
#X obj 1106 560 r duration;
#X obj 1105 560 r noteonn;
#X msg 1105 560 duration \$1;
#X obj 125 108 cnv 15 905 450 empty empty empty 20 12 0 14 -233017
-66577 0;
#X obj 233 173 vradio 25 1 0 2 switch1 llll empty 0 -8 0 10 -262144
-159808 -1 0;
#X obj 233 334 vradio 25 1 0 2 switch2 lllllllllll empty 0 -8 0 10
-262144 -159808 -1 0;
#X obj 233 493 vradio 25 1 0 2 switch3 llllllllllllll empty 0 -8 0
10 -262144 -159808 -1 0;
#X text 232 147 OSC 1;
#X text 232 308 OSC 2;
#X text 231 466 OSC 3;
#X text 262 198 Sine;
#X text 262 173 Saw;
#X text 262 359 Sine;
#X text 263 334 Saw;
#X obj 359 151 piano-rol;
#X obj 153 218 knob 40 40 4 10 0 0 bright inilop empty 0 -8 0 8 -262144
-159808 -1 0 1;
#X obj 152 333 knob 40 40 80 1000 0 0 atk iniatk empty 0 -8 0 8 -262144
-159808 -1 0 1;
#X obj 152 447 knob 40 40 300 4000 0 0 dec inidec empty 0 -8 0 8 -262144
-159808 -1 0 1;
#X text 263 518 Sine;
#X text 263 493 Saw;
#X obj 314 175 vsl 20 45 0 1 0 0 vol01 vol1ini empty 0 -9 0 10 -262144
-159808 -1 4400 1;
#X obj 314 336 vsl 20 45 0 1 0 0 vol02 vol2ini empty 0 -9 0 10 -262144
-159808 -1 2200 1;
#X obj 314 495 vsl 20 45 0 1 0 0 vol03 vol3ini empty 0 -9 0 10 -262144
-159808 -1 880 1;
#X text 307 145 VOL;
#X text 308 307 VOL;
#X text 308 466 VOL;
#X text 146 422 DECAY;
#X text 151 486 TIME;
#X text 150 372 TIME;
#X text 141 308 ATTACK;
#X text 134 194 LOW PASS;
#X text 151 257 FREQ;
#X obj 21 577 cnv 15 1010 330 empty empty empty 20 12 0 14 -233017
-66577 0;
#X text 56 804 SNARE;
#X obj 112 838 kick;
#X text 65 841 KICK;
#X obj 120 881 bng 15 250 50 0 . a0 empty 17 7 0 10 -232576 -159808
-159808;
#X obj 157 881 bng 15 250 50 0 . a1 empty 17 7 0 10 -261234 -258113
-258113;
#X obj 192 881 bng 15 250 50 0 . a2 empty 17 7 0 10 -261234 -258113
-258113;
#X obj 228 881 bng 15 250 50 0 . a3 empty 17 7 0 10 -261234 -258113
-258113;
#X obj 112 799 snare;
#X obj 263 881 bng 15 250 50 0 . a4 empty 17 7 0 10 -261234 -258113
-258113;
#X obj 298 881 bng 15 250 50 0 . a5 empty 17 7 0 10 -261234 -258113
-258113;
#X obj 334 881 bng 15 250 50 0 . a6 empty 17 7 0 10 -232576 -159808
-159808;
#X obj 370 881 bng 15 250 50 0 . a7 empty 17 7 0 10 -261234 -258113
-258113;
#X obj 405 881 bng 15 250 50 0 . a8 empty 17 7 0 10 -261234 -258113
-258113;
#X obj 442 881 bng 15 250 50 0 . a9 empty 17 7 0 10 -261234 -258113
-258113;
#X obj 477 881 bng 15 250 50 0 . a10 empty 17 7 0 10 -261234 -258113
-258113;
#X obj 513 881 bng 15 250 50 0 . a11 empty 17 7 0 10 -261234 -258113
-258113;
#X obj 548 881 bng 15 250 50 0 . a12 empty 17 7 0 10 -232576 -159808
-159808;
#X obj 583 881 bng 15 250 50 0 . a13 empty 17 7 0 10 -261234 -258113
-258113;
#X obj 619 881 bng 15 250 50 0 . a14 empty 17 7 0 10 -261234 -258113
-258113;
#X obj 655 881 bng 15 250 50 0 . a15 empty 17 7 0 10 -261234 -258113
-258113;
#X obj 690 881 bng 15 250 50 0 . a16 empty 17 7 0 10 -261234 -258113
-258113;
#X obj 727 881 bng 15 250 50 0 . a17 empty 17 7 0 10 -261234 -258113
-258113;
#X obj 762 881 bng 15 250 50 0 . a18 empty 17 7 0 10 -232576 -159808
-159808;
#X obj 798 881 bng 15 250 50 0 . a19 empty 17 7 0 10 -261234 -258113
-258113;
#X obj 833 881 bng 15 250 50 0 . a20 empty 17 7 0 10 -261234 -258113
-258113;
#X obj 868 881 bng 15 250 50 0 . a21 empty 17 7 0 10 -261234 -258113
-258113;
#X obj 904 881 bng 15 250 50 0 . a22 empty 17 7 0 10 -261234 -258113
-258113;
#X obj 940 881 bng 15 250 50 0 . az empty 17 7 0 10 -261234 -258113
-258113;
#X obj 112 760 clap;
#X text 66 766 CLAP;
#X obj 112 722 hhcls;
#X text 26 727 HH CLOSE;
#X obj 112 684 hhopn;
#X text 35 690 HH OPEN;
#X obj 112 646 crash;
#X text 54 651 CRASH;
#X obj 971 650 knob 25 25 0 2 0 0 crashvol vol empty 0 -8 0 8 -262144
-159808 -159808 1200 1;
#X obj 971 688 knob 25 25 0 2 0 0 hhovol vol empty 0 -8 0 8 -262144
-159808 -159808 1200 1;
#X obj 972 727 knob 25 25 0 2 0 0 hhcvol vol empty 0 -8 0 8 -262144
-159808 -159808 1200 1;
#X obj 972 765 knob 25 25 0 2 0 0 clapvol vol empty 0 -8 0 8 -262144
-159808 -159808 1200 1;
#X obj 972 804 knob 25 25 0 2 0 0 snarevol vol empty 0 -8 0 8 -262144
-159808 -159808 1200 1;
#X obj 972 842 knob 25 25 0 2 0 0 kickvol vol empty 0 -8 0 8 -262144
-159808 -159808 1200 1;
#X obj 976 881 bng 15 250 50 0 vol1 ppp Reset 17 7 0 10 -262144 -1
-1;
#X obj 131 113 cnv 15 230 25 empty empty empty 20 12 0 14 -232576 -66577
0;
#X text 149 114 MOOG BASS SEQUENCER;
#X obj 27 583 cnv 15 230 25 empty empty empty 20 12 0 14 -232576 -66577
0;
#X text 44 584 SAMPLE DRUM MACHINE;
#X obj 1073 125 cnv 15 180 200 empty empty empty 20 12 0 14 -233017
-66577 0;
#X floatatom 1186 215 5 50 120 3 Tempo tempostart tempo;
#X obj 1186 155 tgl 50 0 onoff - empty 17 7 0 10 -204786 -4034 -1 0
1;
#X text 1181 130 ON/OFF;
#X obj 1081 279 output~;
#X obj 1156 293 cnv 15 90 25 empty empty empty 20 12 0 14 -204786 -66577
0;
#X obj 1078 132 cnv 15 90 25 empty empty empty 20 12 0 14 -204786 -66577
0;
#X text 1095 132 METRO;
#X text 1185 293 OUT;
#N canvas 184 133 1503 846 sinte 0;
#X obj 170 1070 osc~;
#X obj 168 984 *~;
#X obj 169 1040 +~;
#X obj 120 946 osc~;
#X obj 118 912 *~;
#X floatatom 196 1012 5 0 0 0 - - -;
#X text 252 1011 Carrier;
#X text 76 945 Mod;
#X floatatom 69 871 5 0 0 0 - - -;
#X floatatom 131 871 5 0 0 0 - - -;
#X text 65 840 f mod;
#X text 142 838 x;
#X floatatom 195 953 5 0 0 0 - - -;
#X text 197 927 Amp;
#X obj 81 179 osc~;
#X obj 81 113 r frec1;
#X obj 134 179 osc~;
#X obj 134 147 * 2;
#X obj 184 178 osc~;
#X obj 234 178 osc~;
#X obj 184 146 * 3;
#X obj 234 146 * 4;
#X obj 282 177 osc~;
#X obj 282 145 * 5;
#X obj 331 176 osc~;
#X obj 331 144 * 6;
#X obj 297 223 r tres;
#X obj 378 224 r cuatro;
#X obj 470 225 r cinco;
#X obj 220 223 r dos;
#X obj 143 223 r uno;
#X obj 286 261 *~ 0.2;
#X obj 371 263 *~ 0.1;
#X obj 463 262 *~ 0.05;
#X obj 133 265 *~ 0.3;
#X obj 205 262 *~ 0.25;
#X obj 81 360 *~ 0.6;
#X obj 151 441 r~ envolvente;
#X obj 81 464 *~;
#X obj 690 160 mtof;
#X obj 690 283 s frec1;
#X obj 690 199 t f b;
#X obj 772 283 s noteonn;
#X obj 690 48 notein;
#X floatatom 690 125 5 0 0 0 - - -;
#X obj 772 250 spigot;
#X obj 916 257 s uno;
#X obj 916 147 / 127;
#X obj 916 224 * 0.5;
#X obj 690 87 line \$1 10;
#X obj 986 146 / 127;
#X obj 1049 144 / 127;
#X obj 1119 143 / 127;
#X obj 1209 143 / 127;
#X obj 986 223 * 0.4;
#X obj 1049 221 * 0.3;
#X obj 1119 219 * 0.2;
#X obj 1209 220 * 0.1;
#X obj 986 256 s dos;
#X obj 1049 254 s tres;
#X obj 1119 252 s cuatro;
#X obj 1209 252 s cinco;
#X obj 906 73 select 0;
#X obj 959 185 r one;
#X obj 1020 185 r two;
#X obj 1082 184 r three;
#X obj 1162 183 r four;
#X obj 1233 183 r five;
#X obj 814 397 ctlin 1;
#X obj 814 457 send dur;
#X obj 814 426 * 50;
#X obj 36 578 throw~ outl;
#X obj 163 577 throw~ outr;
#X obj 82 513 *~ 1;
#X obj 637 395 ctlin 7;
#X obj 635 424 / 127;
#X obj 634 465 s volx;
#X obj 139 490 r volumennn;
#X connect 1 0 2 0;
#X connect 2 0 0 0;
#X connect 3 0 1 0;
#X connect 4 0 3 0;
#X connect 5 0 2 1;
#X connect 8 0 4 0;
#X connect 9 0 4 1;
#X connect 12 0 1 1;
#X connect 14 0 36 0;
#X connect 15 0 14 0;
#X connect 15 0 17 0;
#X connect 15 0 20 0;
#X connect 15 0 21 0;
#X connect 15 0 23 0;
#X connect 15 0 25 0;
#X connect 16 0 34 0;
#X connect 17 0 16 0;
#X connect 18 0 35 0;
#X connect 19 0 31 0;
#X connect 20 0 18 0;
#X connect 21 0 19 0;
#X connect 22 0 32 0;
#X connect 23 0 22 0;
#X connect 24 0 33 0;
#X connect 25 0 24 0;
#X connect 26 0 31 1;
#X connect 27 0 32 1;
#X connect 28 0 33 1;
#X connect 29 0 35 1;
#X connect 30 0 34 1;
#X connect 31 0 36 0;
#X connect 32 0 36 0;
#X connect 33 0 36 0;
#X connect 34 0 36 0;
#X connect 35 0 36 0;
#X connect 36 0 38 0;
#X connect 37 0 38 1;
#X connect 38 0 73 0;
#X connect 39 0 41 0;
#X connect 41 0 40 0;
#X connect 41 1 45 0;
#X connect 43 0 49 0;
#X connect 43 1 45 1;
#X connect 43 1 62 0;
#X connect 44 0 39 0;
#X connect 45 0 42 0;
#X connect 47 0 48 0;
#X connect 48 0 46 0;
#X connect 49 0 44 0;
#X connect 50 0 54 0;
#X connect 51 0 55 0;
#X connect 52 0 56 0;
#X connect 53 0 57 0;
#X connect 54 0 58 0;
#X connect 55 0 59 0;
#X connect 56 0 60 0;
#X connect 57 0 61 0;
#X connect 62 1 47 0;
#X connect 62 1 50 0;
#X connect 62 1 51 0;
#X connect 62 1 52 0;
#X connect 62 1 53 0;
#X connect 63 0 48 1;
#X connect 64 0 54 1;
#X connect 65 0 55 1;
#X connect 66 0 56 1;
#X connect 67 0 57 1;
#X connect 68 0 70 0;
#X connect 70 0 69 0;
#X connect 73 0 72 0;
#X connect 73 0 71 0;
#X connect 74 0 75 0;
#X connect 75 0 76 0;
#X connect 77 0 73 1;
#X restore 1446 739 pd sinte mono;
#X text 122 617 1;
#X text 336 616 2;
#X text 548 616 3;
#X text 762 615 4;
#X text 408 126 1;
#X text 561 125 2;
#X text 712 125 3;
#X text 862 124 4;
#X obj 1059 456 cnv 15 530 320 empty empty empty 20 12 0 14 -233017
-66577 0;
#X obj 1405 588 knob 25 25 0 1 0 0 one ..... empty 0 -8 0 8 -262144
-258113 -1 0 1;
#X obj 1405 618 knob 25 25 0 1 0 0 two ..... empty 0 -8 0 8 -262144
-258113 -1 0 1;
#X obj 1405 647 knob 25 25 0 1 0 0 three ..... empty 0 -8 0 8 -262144
-258113 -1 0 1;
#X obj 1405 677 knob 25 25 0 1 0 0 four ..... empty 0 -8 0 8 -262144
-258113 -1 0 1;
#X obj 1405 707 knob 25 25 0 1 0 0 five ..... empty 0 -8 0 8 -262144
-258113 -1 0 1;
#X text 1438 586 Harmonic 1;
#X text 1438 616 Harmonic 2;
#X text 1439 646 Harmonic 3;
#X text 1439 677 Harmonic 4;
#X text 1439 707 Harmonic 5;
#X obj 1107 588 envgen 200 140 1 0  ;
#X obj 1316 589 vsl 30 140 0 1 0 0 volumennn volx empty 0 -9 0 10 -261234
-258113 -1 13900 1;
#X text 1315 732 CC7;
#X obj 1108 551 hsl 200 30 300 6300 0 0 duration dur empty -2 -8 0
10 -261234 -258113 -1 0 1;
#X text 1315 554 CC1;
#X text 1132 735 Envelope Shape;
#X text 1091 520 CC1 Volume \, CC7 Harmonics;
#X text 1393 554 Spectral Balance;
#X obj 1071 466 cnv 15 290 25 empty empty empty 20 12 0 14 -261234
-66577 0;
#X text 1089 467 MIDI ADDITIVE SYNTH (MONO);
#X connect 2 0 91 0;
#X connect 3 0 91 1;
#X connect 5 0 6 0;
#X connect 7 0 9 0;
#X connect 8 0 9 0;
#X connect 8 0 116 0;
#X connect 9 0 116 0;
#X connect 116 0 5 0;
