#N canvas 0 0 1920 1026 16;
#X obj 99 100 cnv 15 642 352 empty empty empty 20 12 0 14 -262144 -66577
0;
#X obj 100 386 cnv 15 642 20 empty empty empty 20 12 0 14 -1 -66577
0;
#X obj 100 346 cnv 15 642 20 empty empty empty 20 12 0 14 -1 -66577
0;
#X obj 100 306 cnv 15 642 20 empty empty empty 20 12 0 14 -1 -66577
0;
#X obj 101 246 cnv 15 642 20 empty empty empty 20 12 0 14 -1 -66577
0;
#X obj 100 206 cnv 15 642 20 empty empty empty 20 12 0 14 -1 -66577
0;
#X obj 100 146 cnv 15 642 20 empty empty empty 20 12 0 14 -1 -66577
0;
#X obj 100 106 cnv 15 642 20 empty empty empty 20 12 0 14 -261234 -66577
0;
#X obj 139 106 vradio 20 1 0 17 empty empty empty 0 -8 0 10 -262144
-1 -1 0;
#X floatatom 139 494 5 0 0 0 - - -;
#X obj 139 522 s e1;
#X obj 140 550 s f1;
#X obj 140 578 s fs1;
#X obj 140 606 s g1;
#X obj 140 634 s gs1;
#X obj 141 662 s a1;
#X obj 141 690 s as1;
#X obj 141 718 s c2;
#X obj 141 746 s cs2;
#X obj 142 774 s d2;
#X obj 142 802 s ds2;
#X obj 142 830 s e2;
#X obj 142 858 s f2;
#X obj 143 886 s fs2;
#X obj 143 914 s g2;
#X obj 164 106 vradio 20 1 0 17 empty empty empty 0 -8 0 10 -262144
-1 -1 0;
#X floatatom 164 982 5 0 0 0 - - -;
#X obj 164 1010 s e1;
#X obj 165 1038 s f1;
#X obj 165 1066 s fs1;
#X obj 165 1094 s g1;
#X obj 165 1122 s gs1;
#X obj 166 1150 s a1;
#X obj 166 1178 s as1;
#X obj 166 1206 s c2;
#X obj 166 1234 s cs2;
#X obj 167 1262 s d2;
#X obj 167 1290 s ds2;
#X obj 167 1318 s e2;
#X obj 167 1346 s f2;
#X obj 168 1374 s fs2;
#X obj 168 1402 s g2;
#X obj 189 106 vradio 20 1 0 17 empty empty empty 0 -8 0 10 -262144
-1 -1 0;
#X floatatom 189 494 5 0 0 0 - - -;
#X obj 189 522 s e1;
#X obj 190 550 s f1;
#X obj 190 578 s fs1;
#X obj 190 606 s g1;
#X obj 190 634 s gs1;
#X obj 191 662 s a1;
#X obj 191 690 s as1;
#X obj 191 718 s c2;
#X obj 191 746 s cs2;
#X obj 192 774 s d2;
#X obj 192 802 s ds2;
#X obj 192 830 s e2;
#X obj 192 858 s f2;
#X obj 193 886 s fs2;
#X obj 193 914 s g2;
#X obj 214 106 vradio 20 1 0 17 empty empty empty 0 -8 0 10 -262144
-1 -1 0;
#X floatatom 214 982 5 0 0 0 - - -;
#X obj 214 1010 s e1;
#X obj 215 1038 s f1;
#X obj 215 1066 s fs1;
#X obj 215 1094 s g1;
#X obj 215 1122 s gs1;
#X obj 216 1150 s a1;
#X obj 216 1178 s as1;
#X obj 216 1206 s c2;
#X obj 216 1234 s cs2;
#X obj 217 1262 s d2;
#X obj 217 1290 s ds2;
#X obj 217 1318 s e2;
#X obj 217 1346 s f2;
#X obj 218 1374 s fs2;
#X obj 218 1402 s g2;
#X obj 240 106 vradio 20 1 0 17 empty empty empty 0 -8 0 10 -262144
-1 -1 0;
#X floatatom 240 494 5 0 0 0 - - -;
#X obj 240 522 s e1;
#X obj 241 550 s f1;
#X obj 241 578 s fs1;
#X obj 241 606 s g1;
#X obj 241 634 s gs1;
#X obj 242 662 s a1;
#X obj 242 690 s as1;
#X obj 242 718 s c2;
#X obj 242 746 s cs2;
#X obj 243 774 s d2;
#X obj 243 802 s ds2;
#X obj 243 830 s e2;
#X obj 243 858 s f2;
#X obj 244 886 s fs2;
#X obj 244 914 s g2;
#X obj 265 106 vradio 20 1 0 17 empty empty empty 0 -8 0 10 -262144
-1 -1 0;
#X floatatom 265 982 5 0 0 0 - - -;
#X obj 265 1010 s e1;
#X obj 266 1038 s f1;
#X obj 266 1066 s fs1;
#X obj 266 1094 s g1;
#X obj 266 1122 s gs1;
#X obj 267 1150 s a1;
#X obj 267 1178 s as1;
#X obj 267 1206 s c2;
#X obj 267 1234 s cs2;
#X obj 268 1262 s d2;
#X obj 268 1290 s ds2;
#X obj 268 1318 s e2;
#X obj 268 1346 s f2;
#X obj 269 1374 s fs2;
#X obj 269 1402 s g2;
#X obj 290 106 vradio 20 1 0 17 empty empty empty 0 -8 0 10 -262144
-1 -1 0;
#X floatatom 290 494 5 0 0 0 - - -;
#X obj 290 522 s e1;
#X obj 291 550 s f1;
#X obj 291 578 s fs1;
#X obj 291 606 s g1;
#X obj 291 634 s gs1;
#X obj 292 662 s a1;
#X obj 292 690 s as1;
#X obj 292 718 s c2;
#X obj 292 746 s cs2;
#X obj 293 774 s d2;
#X obj 293 802 s ds2;
#X obj 293 830 s e2;
#X obj 293 858 s f2;
#X obj 294 886 s fs2;
#X obj 294 914 s g2;
#X obj 315 106 vradio 20 1 0 17 empty empty empty 0 -8 0 10 -262144
-1 -1 0;
#X floatatom 315 982 5 0 0 0 - - -;
#X obj 315 1010 s e1;
#X obj 316 1038 s f1;
#X obj 316 1066 s fs1;
#X obj 316 1094 s g1;
#X obj 316 1122 s gs1;
#X obj 317 1150 s a1;
#X obj 317 1178 s as1;
#X obj 317 1206 s c2;
#X obj 317 1234 s cs2;
#X obj 318 1262 s d2;
#X obj 318 1290 s ds2;
#X obj 318 1318 s e2;
#X obj 318 1346 s f2;
#X obj 319 1374 s fs2;
#X obj 319 1402 s g2;
#X obj 341 106 vradio 20 1 0 17 empty empty empty 0 -8 0 10 -262144
-1 -1 0;
#X floatatom 341 494 5 0 0 0 - - -;
#X obj 341 522 s e1;
#X obj 342 550 s f1;
#X obj 342 578 s fs1;
#X obj 342 606 s g1;
#X obj 342 634 s gs1;
#X obj 343 662 s a1;
#X obj 343 690 s as1;
#X obj 343 718 s c2;
#X obj 343 746 s cs2;
#X obj 344 774 s d2;
#X obj 344 802 s ds2;
#X obj 344 830 s e2;
#X obj 344 858 s f2;
#X obj 345 886 s fs2;
#X obj 345 914 s g2;
#X obj 366 106 vradio 20 1 0 17 empty empty empty 0 -8 0 10 -262144
-1 -1 0;
#X floatatom 366 982 5 0 0 0 - - -;
#X obj 366 1010 s e1;
#X obj 367 1038 s f1;
#X obj 367 1066 s fs1;
#X obj 367 1094 s g1;
#X obj 367 1122 s gs1;
#X obj 368 1150 s a1;
#X obj 368 1178 s as1;
#X obj 368 1206 s c2;
#X obj 368 1234 s cs2;
#X obj 369 1262 s d2;
#X obj 369 1290 s ds2;
#X obj 369 1318 s e2;
#X obj 369 1346 s f2;
#X obj 370 1374 s fs2;
#X obj 370 1402 s g2;
#X obj 391 106 vradio 20 1 0 17 empty empty empty 0 -8 0 10 -262144
-1 -1 0;
#X floatatom 391 494 5 0 0 0 - - -;
#X obj 391 522 s e1;
#X obj 392 550 s f1;
#X obj 392 578 s fs1;
#X obj 392 606 s g1;
#X obj 392 634 s gs1;
#X obj 393 662 s a1;
#X obj 393 690 s as1;
#X obj 393 718 s c2;
#X obj 393 746 s cs2;
#X obj 394 774 s d2;
#X obj 394 802 s ds2;
#X obj 394 830 s e2;
#X obj 394 858 s f2;
#X obj 395 886 s fs2;
#X obj 395 914 s g2;
#X obj 416 106 vradio 20 1 0 17 empty empty empty 0 -8 0 10 -262144
-1 -1 0;
#X floatatom 416 982 5 0 0 0 - - -;
#X obj 416 1010 s e1;
#X obj 417 1038 s f1;
#X obj 417 1066 s fs1;
#X obj 417 1094 s g1;
#X obj 417 1122 s gs1;
#X obj 418 1150 s a1;
#X obj 418 1178 s as1;
#X obj 418 1206 s c2;
#X obj 418 1234 s cs2;
#X obj 419 1262 s d2;
#X obj 419 1290 s ds2;
#X obj 419 1318 s e2;
#X obj 419 1346 s f2;
#X obj 420 1374 s fs2;
#X obj 420 1402 s g2;
#X obj 442 106 vradio 20 1 0 17 empty empty empty 0 -8 0 10 -262144
-1 -1 0;
#X floatatom 442 494 5 0 0 0 - - -;
#X obj 442 522 s e1;
#X obj 443 550 s f1;
#X obj 443 578 s fs1;
#X obj 443 606 s g1;
#X obj 443 634 s gs1;
#X obj 444 662 s a1;
#X obj 444 690 s as1;
#X obj 444 718 s c2;
#X obj 444 746 s cs2;
#X obj 445 774 s d2;
#X obj 445 802 s ds2;
#X obj 445 830 s e2;
#X obj 445 858 s f2;
#X obj 446 886 s fs2;
#X obj 446 914 s g2;
#X obj 467 106 vradio 20 1 0 17 empty empty empty 0 -8 0 10 -262144
-1 -1 0;
#X floatatom 467 982 5 0 0 0 - - -;
#X obj 467 1010 s e1;
#X obj 468 1038 s f1;
#X obj 468 1066 s fs1;
#X obj 468 1094 s g1;
#X obj 468 1122 s gs1;
#X obj 469 1150 s a1;
#X obj 469 1178 s as1;
#X obj 469 1206 s c2;
#X obj 469 1234 s cs2;
#X obj 470 1262 s d2;
#X obj 470 1290 s ds2;
#X obj 470 1318 s e2;
#X obj 470 1346 s f2;
#X obj 471 1374 s fs2;
#X obj 471 1402 s g2;
#X obj 492 106 vradio 20 1 0 17 empty empty empty 0 -8 0 10 -262144
-1 -1 0;
#X floatatom 492 494 5 0 0 0 - - -;
#X obj 492 522 s e1;
#X obj 493 550 s f1;
#X obj 493 578 s fs1;
#X obj 493 606 s g1;
#X obj 493 634 s gs1;
#X obj 494 662 s a1;
#X obj 494 690 s as1;
#X obj 494 718 s c2;
#X obj 494 746 s cs2;
#X obj 495 774 s d2;
#X obj 495 802 s ds2;
#X obj 495 830 s e2;
#X obj 495 858 s f2;
#X obj 496 886 s fs2;
#X obj 496 914 s g2;
#X obj 517 106 vradio 20 1 0 17 empty empty empty 0 -8 0 10 -262144
-1 -1 0;
#X floatatom 517 982 5 0 0 0 - - -;
#X obj 517 1010 s e1;
#X obj 518 1038 s f1;
#X obj 518 1066 s fs1;
#X obj 518 1094 s g1;
#X obj 518 1122 s gs1;
#X obj 519 1150 s a1;
#X obj 519 1178 s as1;
#X obj 519 1206 s c2;
#X obj 519 1234 s cs2;
#X obj 520 1262 s d2;
#X obj 520 1290 s ds2;
#X obj 520 1318 s e2;
#X obj 520 1346 s f2;
#X obj 521 1374 s fs2;
#X obj 521 1402 s g2;
#X obj 139 461 r a0;
#X obj 164 949 r a1;
#X obj 189 461 r a2;
#X obj 214 949 r a3;
#X obj 240 461 r a4;
#X obj 265 949 r a5;
#X obj 290 461 r a6;
#X obj 315 949 r a7;
#X obj 341 461 r a8;
#X obj 366 949 r a9;
#X obj 542 106 vradio 20 1 0 17 empty empty empty 0 -8 0 10 -262144
-1 -1 0;
#X floatatom 542 494 5 0 0 0 - - -;
#X obj 542 522 s e1;
#X obj 543 550 s f1;
#X obj 543 578 s fs1;
#X obj 543 606 s g1;
#X obj 543 634 s gs1;
#X obj 544 662 s a1;
#X obj 544 690 s as1;
#X obj 544 718 s c2;
#X obj 544 746 s cs2;
#X obj 545 774 s d2;
#X obj 545 802 s ds2;
#X obj 545 830 s e2;
#X obj 545 858 s f2;
#X obj 546 886 s fs2;
#X obj 546 914 s g2;
#X obj 567 106 vradio 20 1 0 17 empty empty empty 0 -8 0 10 -262144
-1 -1 0;
#X floatatom 567 982 5 0 0 0 - - -;
#X obj 567 1010 s e1;
#X obj 568 1038 s f1;
#X obj 568 1066 s fs1;
#X obj 568 1094 s g1;
#X obj 568 1122 s gs1;
#X obj 569 1150 s a1;
#X obj 569 1178 s as1;
#X obj 569 1206 s c2;
#X obj 569 1234 s cs2;
#X obj 570 1262 s d2;
#X obj 570 1290 s ds2;
#X obj 570 1318 s e2;
#X obj 570 1346 s f2;
#X obj 571 1374 s fs2;
#X obj 571 1402 s g2;
#X obj 592 106 vradio 20 1 0 17 empty empty empty 0 -8 0 10 -262144
-1 -1 0;
#X floatatom 592 494 5 0 0 0 - - -;
#X obj 592 522 s e1;
#X obj 593 550 s f1;
#X obj 593 578 s fs1;
#X obj 593 606 s g1;
#X obj 593 634 s gs1;
#X obj 594 662 s a1;
#X obj 594 690 s as1;
#X obj 594 718 s c2;
#X obj 594 746 s cs2;
#X obj 595 774 s d2;
#X obj 595 802 s ds2;
#X obj 595 830 s e2;
#X obj 595 858 s f2;
#X obj 596 886 s fs2;
#X obj 596 914 s g2;
#X obj 617 106 vradio 20 1 0 17 empty empty empty 0 -8 0 10 -262144
-1 -1 0;
#X floatatom 617 982 5 0 0 0 - - -;
#X obj 617 1010 s e1;
#X obj 618 1038 s f1;
#X obj 618 1066 s fs1;
#X obj 618 1094 s g1;
#X obj 618 1122 s gs1;
#X obj 619 1150 s a1;
#X obj 619 1178 s as1;
#X obj 619 1206 s c2;
#X obj 619 1234 s cs2;
#X obj 620 1262 s d2;
#X obj 620 1290 s ds2;
#X obj 620 1318 s e2;
#X obj 620 1346 s f2;
#X obj 621 1374 s fs2;
#X obj 621 1402 s g2;
#X obj 643 106 vradio 20 1 0 17 empty empty empty 0 -8 0 10 -262144
-1 -1 0;
#X floatatom 643 494 5 0 0 0 - - -;
#X obj 643 522 s e1;
#X obj 644 550 s f1;
#X obj 644 578 s fs1;
#X obj 644 606 s g1;
#X obj 644 634 s gs1;
#X obj 645 662 s a1;
#X obj 645 690 s as1;
#X obj 645 718 s c2;
#X obj 645 746 s cs2;
#X obj 646 774 s d2;
#X obj 646 802 s ds2;
#X obj 646 830 s e2;
#X obj 646 858 s f2;
#X obj 647 886 s fs2;
#X obj 647 914 s g2;
#X obj 668 106 vradio 20 1 0 17 empty empty empty 0 -8 0 10 -262144
-1 -1 0;
#X floatatom 668 982 5 0 0 0 - - -;
#X obj 668 1010 s e1;
#X obj 669 1038 s f1;
#X obj 669 1066 s fs1;
#X obj 669 1094 s g1;
#X obj 669 1122 s gs1;
#X obj 670 1150 s a1;
#X obj 670 1178 s as1;
#X obj 670 1206 s c2;
#X obj 670 1234 s cs2;
#X obj 671 1262 s d2;
#X obj 671 1290 s ds2;
#X obj 671 1318 s e2;
#X obj 671 1346 s f2;
#X obj 672 1374 s fs2;
#X obj 672 1402 s g2;
#X obj 693 106 vradio 20 1 0 17 empty empty empty 0 -8 0 10 -262144
-1 -1 0;
#X floatatom 693 494 5 0 0 0 - - -;
#X obj 693 522 s e1;
#X obj 694 550 s f1;
#X obj 694 578 s fs1;
#X obj 694 606 s g1;
#X obj 694 634 s gs1;
#X obj 695 662 s a1;
#X obj 695 690 s as1;
#X obj 695 718 s c2;
#X obj 695 746 s cs2;
#X obj 696 774 s d2;
#X obj 696 802 s ds2;
#X obj 696 830 s e2;
#X obj 696 858 s f2;
#X obj 697 886 s fs2;
#X obj 697 914 s g2;
#X obj 718 106 vradio 20 1 0 17 empty empty empty 0 -8 0 10 -262144
-1 -1 0;
#X floatatom 718 982 5 0 0 0 - - -;
#X obj 718 1010 s e1;
#X obj 719 1038 s f1;
#X obj 719 1066 s fs1;
#X obj 719 1094 s g1;
#X obj 719 1122 s gs1;
#X obj 720 1150 s a1;
#X obj 720 1178 s as1;
#X obj 720 1206 s c2;
#X obj 720 1234 s cs2;
#X obj 721 1262 s d2;
#X obj 721 1290 s ds2;
#X obj 721 1318 s e2;
#X obj 721 1346 s f2;
#X obj 722 1374 s fs2;
#X obj 722 1402 s g2;
#X obj 391 460 r a10;
#X obj 416 948 r a11;
#X obj 442 461 r a12;
#X obj 467 949 r a13;
#X obj 492 460 r a14;
#X obj 517 949 r a15;
#X obj 542 460 r a16;
#X obj 567 949 r a17;
#X obj 592 460 r a18;
#X obj 617 949 r a19;
#X obj 643 461 r a20;
#X obj 668 948 r a21;
#X obj 693 461 r a22;
#X obj 718 949 r az;
#X connect 8 0 9 0;
#X connect 8 0 10 0;
#X connect 8 0 11 0;
#X connect 8 0 12 0;
#X connect 8 0 13 0;
#X connect 8 0 14 0;
#X connect 8 0 15 0;
#X connect 8 0 16 0;
#X connect 8 0 17 0;
#X connect 8 0 18 0;
#X connect 8 0 19 0;
#X connect 8 0 20 0;
#X connect 8 0 21 0;
#X connect 8 0 22 0;
#X connect 8 0 23 0;
#X connect 8 0 24 0;
#X connect 25 0 26 0;
#X connect 25 0 27 0;
#X connect 25 0 28 0;
#X connect 25 0 29 0;
#X connect 25 0 30 0;
#X connect 25 0 31 0;
#X connect 25 0 32 0;
#X connect 25 0 33 0;
#X connect 25 0 34 0;
#X connect 25 0 35 0;
#X connect 25 0 36 0;
#X connect 25 0 37 0;
#X connect 25 0 38 0;
#X connect 25 0 39 0;
#X connect 25 0 40 0;
#X connect 25 0 41 0;
#X connect 42 0 43 0;
#X connect 42 0 44 0;
#X connect 42 0 45 0;
#X connect 42 0 46 0;
#X connect 42 0 47 0;
#X connect 42 0 48 0;
#X connect 42 0 49 0;
#X connect 42 0 50 0;
#X connect 42 0 51 0;
#X connect 42 0 52 0;
#X connect 42 0 53 0;
#X connect 42 0 54 0;
#X connect 42 0 55 0;
#X connect 42 0 56 0;
#X connect 42 0 57 0;
#X connect 42 0 58 0;
#X connect 59 0 60 0;
#X connect 59 0 61 0;
#X connect 59 0 62 0;
#X connect 59 0 63 0;
#X connect 59 0 64 0;
#X connect 59 0 65 0;
#X connect 59 0 66 0;
#X connect 59 0 67 0;
#X connect 59 0 68 0;
#X connect 59 0 69 0;
#X connect 59 0 70 0;
#X connect 59 0 71 0;
#X connect 59 0 72 0;
#X connect 59 0 73 0;
#X connect 59 0 74 0;
#X connect 59 0 75 0;
#X connect 76 0 77 0;
#X connect 76 0 78 0;
#X connect 76 0 79 0;
#X connect 76 0 80 0;
#X connect 76 0 81 0;
#X connect 76 0 82 0;
#X connect 76 0 83 0;
#X connect 76 0 84 0;
#X connect 76 0 85 0;
#X connect 76 0 86 0;
#X connect 76 0 87 0;
#X connect 76 0 88 0;
#X connect 76 0 89 0;
#X connect 76 0 90 0;
#X connect 76 0 91 0;
#X connect 76 0 92 0;
#X connect 93 0 94 0;
#X connect 93 0 95 0;
#X connect 93 0 96 0;
#X connect 93 0 97 0;
#X connect 93 0 98 0;
#X connect 93 0 99 0;
#X connect 93 0 100 0;
#X connect 93 0 101 0;
#X connect 93 0 102 0;
#X connect 93 0 103 0;
#X connect 93 0 104 0;
#X connect 93 0 105 0;
#X connect 93 0 106 0;
#X connect 93 0 107 0;
#X connect 93 0 108 0;
#X connect 93 0 109 0;
#X connect 110 0 111 0;
#X connect 110 0 112 0;
#X connect 110 0 113 0;
#X connect 110 0 114 0;
#X connect 110 0 115 0;
#X connect 110 0 116 0;
#X connect 110 0 117 0;
#X connect 110 0 118 0;
#X connect 110 0 119 0;
#X connect 110 0 120 0;
#X connect 110 0 121 0;
#X connect 110 0 122 0;
#X connect 110 0 123 0;
#X connect 110 0 124 0;
#X connect 110 0 125 0;
#X connect 110 0 126 0;
#X connect 127 0 128 0;
#X connect 127 0 129 0;
#X connect 127 0 130 0;
#X connect 127 0 131 0;
#X connect 127 0 132 0;
#X connect 127 0 133 0;
#X connect 127 0 134 0;
#X connect 127 0 135 0;
#X connect 127 0 136 0;
#X connect 127 0 137 0;
#X connect 127 0 138 0;
#X connect 127 0 139 0;
#X connect 127 0 140 0;
#X connect 127 0 141 0;
#X connect 127 0 142 0;
#X connect 127 0 143 0;
#X connect 144 0 145 0;
#X connect 144 0 146 0;
#X connect 144 0 147 0;
#X connect 144 0 148 0;
#X connect 144 0 149 0;
#X connect 144 0 150 0;
#X connect 144 0 151 0;
#X connect 144 0 152 0;
#X connect 144 0 153 0;
#X connect 144 0 154 0;
#X connect 144 0 155 0;
#X connect 144 0 156 0;
#X connect 144 0 157 0;
#X connect 144 0 158 0;
#X connect 144 0 159 0;
#X connect 144 0 160 0;
#X connect 161 0 162 0;
#X connect 161 0 163 0;
#X connect 161 0 164 0;
#X connect 161 0 165 0;
#X connect 161 0 166 0;
#X connect 161 0 167 0;
#X connect 161 0 168 0;
#X connect 161 0 169 0;
#X connect 161 0 170 0;
#X connect 161 0 171 0;
#X connect 161 0 172 0;
#X connect 161 0 173 0;
#X connect 161 0 174 0;
#X connect 161 0 175 0;
#X connect 161 0 176 0;
#X connect 161 0 177 0;
#X connect 178 0 179 0;
#X connect 178 0 180 0;
#X connect 178 0 181 0;
#X connect 178 0 182 0;
#X connect 178 0 183 0;
#X connect 178 0 184 0;
#X connect 178 0 185 0;
#X connect 178 0 186 0;
#X connect 178 0 187 0;
#X connect 178 0 188 0;
#X connect 178 0 189 0;
#X connect 178 0 190 0;
#X connect 178 0 191 0;
#X connect 178 0 192 0;
#X connect 178 0 193 0;
#X connect 178 0 194 0;
#X connect 195 0 196 0;
#X connect 195 0 197 0;
#X connect 195 0 198 0;
#X connect 195 0 199 0;
#X connect 195 0 200 0;
#X connect 195 0 201 0;
#X connect 195 0 202 0;
#X connect 195 0 203 0;
#X connect 195 0 204 0;
#X connect 195 0 205 0;
#X connect 195 0 206 0;
#X connect 195 0 207 0;
#X connect 195 0 208 0;
#X connect 195 0 209 0;
#X connect 195 0 210 0;
#X connect 195 0 211 0;
#X connect 212 0 213 0;
#X connect 212 0 214 0;
#X connect 212 0 215 0;
#X connect 212 0 216 0;
#X connect 212 0 217 0;
#X connect 212 0 218 0;
#X connect 212 0 219 0;
#X connect 212 0 220 0;
#X connect 212 0 221 0;
#X connect 212 0 222 0;
#X connect 212 0 223 0;
#X connect 212 0 224 0;
#X connect 212 0 225 0;
#X connect 212 0 226 0;
#X connect 212 0 227 0;
#X connect 212 0 228 0;
#X connect 229 0 230 0;
#X connect 229 0 231 0;
#X connect 229 0 232 0;
#X connect 229 0 233 0;
#X connect 229 0 234 0;
#X connect 229 0 235 0;
#X connect 229 0 236 0;
#X connect 229 0 237 0;
#X connect 229 0 238 0;
#X connect 229 0 239 0;
#X connect 229 0 240 0;
#X connect 229 0 241 0;
#X connect 229 0 242 0;
#X connect 229 0 243 0;
#X connect 229 0 244 0;
#X connect 229 0 245 0;
#X connect 246 0 247 0;
#X connect 246 0 248 0;
#X connect 246 0 249 0;
#X connect 246 0 250 0;
#X connect 246 0 251 0;
#X connect 246 0 252 0;
#X connect 246 0 253 0;
#X connect 246 0 254 0;
#X connect 246 0 255 0;
#X connect 246 0 256 0;
#X connect 246 0 257 0;
#X connect 246 0 258 0;
#X connect 246 0 259 0;
#X connect 246 0 260 0;
#X connect 246 0 261 0;
#X connect 246 0 262 0;
#X connect 263 0 264 0;
#X connect 263 0 265 0;
#X connect 263 0 266 0;
#X connect 263 0 267 0;
#X connect 263 0 268 0;
#X connect 263 0 269 0;
#X connect 263 0 270 0;
#X connect 263 0 271 0;
#X connect 263 0 272 0;
#X connect 263 0 273 0;
#X connect 263 0 274 0;
#X connect 263 0 275 0;
#X connect 263 0 276 0;
#X connect 263 0 277 0;
#X connect 263 0 278 0;
#X connect 263 0 279 0;
#X connect 280 0 9 0;
#X connect 281 0 26 0;
#X connect 282 0 43 0;
#X connect 283 0 60 0;
#X connect 284 0 77 0;
#X connect 285 0 94 0;
#X connect 286 0 111 0;
#X connect 287 0 128 0;
#X connect 288 0 145 0;
#X connect 289 0 162 0;
#X connect 290 0 291 0;
#X connect 290 0 292 0;
#X connect 290 0 293 0;
#X connect 290 0 294 0;
#X connect 290 0 295 0;
#X connect 290 0 296 0;
#X connect 290 0 297 0;
#X connect 290 0 298 0;
#X connect 290 0 299 0;
#X connect 290 0 300 0;
#X connect 290 0 301 0;
#X connect 290 0 302 0;
#X connect 290 0 303 0;
#X connect 290 0 304 0;
#X connect 290 0 305 0;
#X connect 290 0 306 0;
#X connect 307 0 308 0;
#X connect 307 0 309 0;
#X connect 307 0 310 0;
#X connect 307 0 311 0;
#X connect 307 0 312 0;
#X connect 307 0 313 0;
#X connect 307 0 314 0;
#X connect 307 0 315 0;
#X connect 307 0 316 0;
#X connect 307 0 317 0;
#X connect 307 0 318 0;
#X connect 307 0 319 0;
#X connect 307 0 320 0;
#X connect 307 0 321 0;
#X connect 307 0 322 0;
#X connect 307 0 323 0;
#X connect 324 0 325 0;
#X connect 324 0 326 0;
#X connect 324 0 327 0;
#X connect 324 0 328 0;
#X connect 324 0 329 0;
#X connect 324 0 330 0;
#X connect 324 0 331 0;
#X connect 324 0 332 0;
#X connect 324 0 333 0;
#X connect 324 0 334 0;
#X connect 324 0 335 0;
#X connect 324 0 336 0;
#X connect 324 0 337 0;
#X connect 324 0 338 0;
#X connect 324 0 339 0;
#X connect 324 0 340 0;
#X connect 341 0 342 0;
#X connect 341 0 343 0;
#X connect 341 0 344 0;
#X connect 341 0 345 0;
#X connect 341 0 346 0;
#X connect 341 0 347 0;
#X connect 341 0 348 0;
#X connect 341 0 349 0;
#X connect 341 0 350 0;
#X connect 341 0 351 0;
#X connect 341 0 352 0;
#X connect 341 0 353 0;
#X connect 341 0 354 0;
#X connect 341 0 355 0;
#X connect 341 0 356 0;
#X connect 341 0 357 0;
#X connect 358 0 359 0;
#X connect 358 0 360 0;
#X connect 358 0 361 0;
#X connect 358 0 362 0;
#X connect 358 0 363 0;
#X connect 358 0 364 0;
#X connect 358 0 365 0;
#X connect 358 0 366 0;
#X connect 358 0 367 0;
#X connect 358 0 368 0;
#X connect 358 0 369 0;
#X connect 358 0 370 0;
#X connect 358 0 371 0;
#X connect 358 0 372 0;
#X connect 358 0 373 0;
#X connect 358 0 374 0;
#X connect 375 0 376 0;
#X connect 375 0 377 0;
#X connect 375 0 378 0;
#X connect 375 0 379 0;
#X connect 375 0 380 0;
#X connect 375 0 381 0;
#X connect 375 0 382 0;
#X connect 375 0 383 0;
#X connect 375 0 384 0;
#X connect 375 0 385 0;
#X connect 375 0 386 0;
#X connect 375 0 387 0;
#X connect 375 0 388 0;
#X connect 375 0 389 0;
#X connect 375 0 390 0;
#X connect 375 0 391 0;
#X connect 392 0 393 0;
#X connect 392 0 394 0;
#X connect 392 0 395 0;
#X connect 392 0 396 0;
#X connect 392 0 397 0;
#X connect 392 0 398 0;
#X connect 392 0 399 0;
#X connect 392 0 400 0;
#X connect 392 0 401 0;
#X connect 392 0 402 0;
#X connect 392 0 403 0;
#X connect 392 0 404 0;
#X connect 392 0 405 0;
#X connect 392 0 406 0;
#X connect 392 0 407 0;
#X connect 392 0 408 0;
#X connect 409 0 410 0;
#X connect 409 0 411 0;
#X connect 409 0 412 0;
#X connect 409 0 413 0;
#X connect 409 0 414 0;
#X connect 409 0 415 0;
#X connect 409 0 416 0;
#X connect 409 0 417 0;
#X connect 409 0 418 0;
#X connect 409 0 419 0;
#X connect 409 0 420 0;
#X connect 409 0 421 0;
#X connect 409 0 422 0;
#X connect 409 0 423 0;
#X connect 409 0 424 0;
#X connect 409 0 425 0;
#X connect 426 0 179 0;
#X connect 427 0 196 0;
#X connect 428 0 213 0;
#X connect 429 0 230 0;
#X connect 430 0 247 0;
#X connect 431 0 264 0;
#X connect 432 0 291 0;
#X connect 433 0 308 0;
#X connect 434 0 325 0;
#X connect 435 0 342 0;
#X connect 436 0 359 0;
#X connect 437 0 376 0;
#X connect 438 0 393 0;
#X connect 439 0 410 0;
#X coords 0 -1 1 1 642 352 1 100 100;
